<?xml version="1.0" standalone="no"?>
<!DOCTYPE svg PUBLIC "-//W3C//DTD SVG 20010904//EN"
 "http://www.w3.org/TR/2001/REC-SVG-20010904/DTD/svg10.dtd">
<svg version="1.0" xmlns="http://www.w3.org/2000/svg"
 width="1113.000000pt" height="1113.000000pt" viewBox="0 0 1113.000000 1113.000000"
 preserveAspectRatio="xMidYMid meet">
<metadata>
Created by potrace 1.14, written by Peter Selinger 2001-2017
</metadata>
<g transform="translate(0.000000,1113.000000) scale(0.100000,-0.100000)"
fill="#000000" stroke="none">
<path d="M5289 10966 c-2 -2 -56 -6 -119 -10 -63 -4 -128 -9 -145 -11 -16 -2
-52 -6 -80 -10 -124 -14 -203 -24 -235 -30 -9 -2 -33 -6 -51 -9 -91 -15 -254
-47 -292 -57 -23 -6 -53 -13 -67 -16 -68 -12 -305 -81 -475 -137 -329 -111
-673 -266 -975 -441 -111 -64 -408 -257 -461 -299 -15 -12 -39 -30 -55 -41
-212 -149 -600 -504 -804 -734 -36 -41 -70 -79 -75 -85 -6 -6 -30 -36 -55 -66
-25 -30 -49 -60 -55 -67 -5 -7 -15 -18 -21 -26 -6 -7 -53 -69 -104 -137 -321
-431 -576 -910 -763 -1435 -27 -77 -53 -153 -57 -170 -5 -16 -20 -70 -35 -120
-31 -106 -27 -92 -60 -230 -30 -123 -31 -128 -45 -205 -6 -30 -12 -66 -15 -80
-5 -24 -15 -78 -20 -110 -11 -64 -30 -213 -40 -315 -4 -33 -8 -71 -10 -84 -22
-131 -22 -817 0 -930 2 -10 6 -55 10 -102 4 -46 8 -91 10 -100 2 -9 6 -40 10
-70 7 -63 28 -192 40 -249 3 -14 8 -41 11 -60 9 -55 43 -210 59 -265 8 -27 16
-61 19 -75 2 -14 9 -38 16 -55 6 -16 11 -32 11 -35 -2 -28 119 -395 165 -497
8 -17 14 -34 14 -38 0 -12 101 -239 162 -364 261 -534 602 -1012 1023 -1435
291 -292 557 -508 895 -728 457 -298 974 -530 1495 -673 152 -41 349 -87 425
-100 19 -3 58 -10 85 -15 28 -5 66 -12 85 -14 19 -3 51 -7 70 -10 71 -11 107
-15 170 -21 36 -4 76 -8 89 -10 162 -26 873 -26 1031 -1 14 3 55 7 92 11 37 3
77 8 90 10 13 2 45 6 71 10 27 4 56 8 65 10 10 1 37 6 62 9 39 5 314 61 345
70 6 1 26 6 45 10 74 17 358 97 400 113 8 3 20 7 25 9 51 13 312 113 393 150
29 13 55 24 57 24 14 0 340 159 430 210 40 23 205 118 230 133 87 52 390 262
476 329 654 510 1173 1139 1536 1863 59 117 107 225 209 470 40 97 175 518
190 591 1 6 11 49 22 95 12 46 23 95 26 109 29 144 37 188 46 247 26 162 33
216 46 338 3 28 7 66 9 85 23 201 24 824 1 960 -3 14 -7 57 -11 95 -3 39 -8
81 -10 95 -2 14 -7 45 -10 70 -3 25 -7 54 -9 65 -2 11 -7 42 -10 69 -4 27 -9
52 -10 55 -2 3 -7 28 -10 55 -6 39 -29 146 -71 326 -31 133 -118 419 -173 566
-97 259 -248 581 -382 814 -167 289 -422 648 -605 850 -22 24 -66 73 -99 109
-146 164 -410 411 -591 556 -28 21 -52 42 -55 45 -40 45 -627 440 -654 440 -3
0 -31 15 -63 34 -133 77 -260 140 -473 234 -309 138 -813 293 -1125 347 -229
39 -336 55 -495 70 -36 4 -83 9 -105 11 -47 6 -681 15 -686 10z"/>
</g>
</svg>
